<?xml version="1.0" standalone="no"?><!DOCTYPE svg PUBLIC "-//W3C//DTD SVG 1.1//EN" "http://www.w3.org/Graphics/SVG/1.1/DTD/svg11.dtd"><svg t="1728461118317" class="icon" viewBox="0 0 1087 1024" version="1.1" xmlns="http://www.w3.org/2000/svg" p-id="1269" xmlns:xlink="http://www.w3.org/1999/xlink" width="212.3046875" height="200"><path d="M94.175106 309.798725l158.842271 523.729125 485.122831-70.418053 100.220466 81.698972 133.41365-435.724963L748.078676 125.584129H386.27513z" fill="#A79C9C" p-id="1270"></path><path d="M278.389702 309.798725m-184.214596 0a184.214596 184.214596 0 1 0 368.429192 0 184.214596 184.214596 0 1 0-368.429192 0Z" fill="#BDB5B5" p-id="1271"></path><path d="M278.389702 526.487645c-119.482473 0-216.69325-97.206447-216.693251-216.69325S158.902898 93.105475 278.389702 93.105475s216.69325 97.206447 216.69325 216.69325-97.210777 216.68892-216.69325 216.68892z m0-368.424861c-83.665013 0-151.735942 68.066598-151.735942 151.735941s68.066598 151.735942 151.735942 151.735942S430.125643 393.468069 430.125643 309.798725 362.054715 158.062784 278.389702 158.062784z" fill="#5E5E5E" p-id="1272"></path><path d="M809.277122 309.798725m-184.214596 0a184.214596 184.214596 0 1 0 368.429192 0 184.214596 184.214596 0 1 0-368.429192 0Z" fill="#BDB5B5" p-id="1273"></path><path d="M809.277122 526.487645c-119.482473 0-216.68892-97.206447-216.68892-216.69325S689.798979 93.105475 809.277122 93.105475s216.68892 97.206447 216.688919 216.69325-97.206447 216.68892-216.688919 216.68892z m0-368.424861c-83.665013 0-151.731611 68.066598-151.731612 151.735941s68.066598 151.735942 151.731612 151.735942 151.731611-68.066598 151.731611-151.735942S892.946465 158.062784 809.277122 158.062784z" fill="#5E5E5E" p-id="1274"></path><path d="M344.524902 747.164943m-125.85695 0a125.85695 125.85695 0 1 0 251.713901 0 125.85695 125.85695 0 1 0-251.713901 0Z" fill="#BDB5B5" p-id="1275"></path><path d="M344.524902 905.500548c-87.306953 0-158.335604-71.028651-158.335604-158.331274 0-87.306953 71.028651-158.335604 158.335604-158.335604s158.335604 71.028651 158.335605 158.335604c0 87.298292-71.028651 158.331274-158.335605 158.331274z m0-251.713901c-51.489493 0-93.378296 41.888803-93.378296 93.378296 0 51.489493 41.888803 93.373965 93.378296 93.373966 51.489493 0 93.378296-41.888803 93.378296-93.373966 0-51.489493-41.888803-93.378296-93.378296-93.378296z" fill="#5E5E5E" p-id="1276"></path><path d="M738.140208 865.404566m-102.2991 0a102.2991 102.2991 0 1 0 204.5982 0 102.2991 102.2991 0 1 0-204.5982 0Z" fill="#BDB5B5" p-id="1277"></path><path d="M738.140208 1000.18232c-74.315491 0-134.773423-60.457932-134.773423-134.773423s60.457932-134.777754 134.773423-134.777754 134.773423 60.462263 134.773423 134.777754-60.457932 134.773423-134.773423 134.773423z m0-204.593869c-38.498031 0-69.816115 31.318084-69.816115 69.820446 0 38.498031 31.318084 69.816115 69.816115 69.816115s69.816115-31.318084 69.816115-69.816115c0-38.502362-31.322414-69.820445-69.816115-69.820446zM133.171143 352.622914l116.732614 404.597421-62.410982 18.001835L70.760161 370.629079zM278.389702 93.105475h557.182138v64.957309H278.389702z" fill="#5E5E5E" p-id="1278"></path><path d="M685.992481 739.868072l19.11477 62.081865-319.005341 98.232772-19.119101-62.077534zM950.49864 364.440813l62.545227 17.538473-146.188587 521.295391-62.545227-17.538473z" fill="#5E5E5E" p-id="1279"></path><path d="M812.269488 313.21981m-60.302034 0a60.302035 60.302035 0 1 0 120.604069 0 60.302035 60.302035 0 1 0-120.604069 0Z" fill="#575757" p-id="1280"></path><path d="M281.234832 313.21981m-60.302035 0a60.302035 60.302035 0 1 0 120.604069 0 60.302035 60.302035 0 1 0-120.604069 0Z" fill="#575757" p-id="1281"></path></svg>